# Blender v2.79 (sub 0) OBJ File: 'untitled.blend'
# www.blender.org
mtllib 2.mtl
o Plane
v 0.874383 -1.417915 2.445181
v 0.874383 -7.782755 2.445181
v 2.550387 -1.417915 0.454631
v 2.226676 -1.417915 1.302458
v 1.704065 -1.417915 1.957198
v 1.704065 -7.782755 1.957198
v 2.226676 -7.782755 1.302458
v 2.550387 -7.782755 0.454631
v 0.874383 -1.417915 -2.445181
v 0.874383 -7.782755 -2.445181
v 2.550387 -1.417915 -0.454631
v 2.226676 -1.417915 -1.302458
v 1.704065 -1.417915 -1.957198
v 1.704065 -7.782755 -1.957198
v 2.226676 -7.782755 -1.302458
v 2.550387 -7.782755 -0.454631
v 2.550387 -1.417915 0.000000
v 2.550387 -7.782755 0.000000
vt 0.241903 1.109908
vt 0.241903 -0.096671
vt 0.293269 -0.096671
vt 0.293269 1.109908
vt 0.362189 -0.096671
vt 0.362189 1.109908
vt 0.451434 -0.096671
vt 0.451434 1.109908
vt 0.499290 -0.096671
vt 0.499290 1.109908
vt 0.756678 1.109908
vt 0.705311 1.109908
vt 0.705311 -0.096671
vt 0.756678 -0.096671
vt 0.636391 1.109908
vt 0.636391 -0.096671
vt 0.547146 1.109908
vt 0.547146 -0.096671
vn 0.5070 0.0000 0.8620
vn 0.7816 0.0000 0.6238
vn 0.9342 -0.0000 0.3567
vn 1.0000 0.0000 0.0000
vn 0.5070 0.0000 -0.8620
vn 0.7816 0.0000 -0.6238
vn 0.9342 -0.0000 -0.3567
usemtl Material.005
s off
f 1/1/1 2/2/1 6/3/1 5/4/1
f 5/4/2 6/3/2 7/5/2 4/6/2
f 4/6/3 7/5/3 8/7/3 3/8/3
f 3/8/4 8/7/4 18/9/4 17/10/4
f 9/11/5 13/12/5 14/13/5 10/14/5
f 13/12/6 12/15/6 15/16/6 14/13/6
f 12/15/7 11/17/7 16/18/7 15/16/7
f 11/17/4 17/10/4 18/9/4 16/18/4
